{"title":"Ganvesh 2016 Marathi 720p Upscaled DesiScr x264 AAC ESubs [TMB]","uid":15656491,"size":750121292,"categoryP":"video","categoryS":"movies","magnet":"?xt=urn:btih:bd42f03c5dede450a63a9c70b7fe4905adae3e8b&amp;dn=Ganvesh+2016+Marathi+720p+Upscaled+DesiScr+x264+AAC+ESubs+%5BTMB%5D&amp;tr=udp%3A%2F%2Ftracker.leechers-paradise.org%3A6969&amp;tr=udp%3A%2F%2Fzer0day.ch%3A1337&amp;tr=udp%3A%2F%2Fopen.demonii.com%3A1337&amp;tr=udp%3A%2F%2Ftracker.coppersurfer.tk%3A6969&amp;tr=udp%3A%2F%2Fexodus.desync.com%3A6969","seeders":9,"leechers":3,"uploader":"Manoj_vb","files":2,"time":1472139987,"description":"http://i1306.photobucket.com/albums/s570/zyx55e/44_zpsc46e809d.gif\r\n \nhttps://s25.postimg.org/hjptftnuj/Ganvesh_Marathi_Movie_Poster.jpg\r\n \nhttps://postimg.org/image/etzbkz1mj/\r\n \nhttps://postimg.org/image/tegefswl7/\r\n \nhttps://postimg.org/image/e75096u4b/\r\n \nhttps://postimg.org/image/ihjo4rz7f/\r\n \nhttps://postimg.org/image/dk63jnx8b/\r\n \nhttps://postimg.org/image/7x9qm6upn/\r\n \nhttps://postimg.org/image/7lsa9fe9n/\r\n \nhttps://postimg.org/image/gi32dd4vv/\r\n \nhttps://postimg.org/image/n9thg7tvf/\r\n \nhttps://postimg.org/image/6nbx750xn/\r\n \nhttp://i1306.photobucket.com/albums/s570/zyx55e/oie_11162011MOJeDGQI_zpsc25b2b81.gif\r\n\r\nGeneral\r\nComplete name               : Ganvesh 2016 720p Upscaled DesiScr x264 AAC ESubs [TMB].mp4\r\nFormat                      : MPEG-4\r\nFormat profile              : Base Media / Version 2\r\nCodec ID                    : mp42 (mp42/isom)\r\nFile size                   : 708 MiB\r\nDuration                    : 1 h 51 min\r\nOverall bit rate mode       : Variable\r\nOverall bit rate            : 883 kb/s\r\n\r\nVideo\r\nFormat                      : AVC\r\nFormat/Info                 : Advanced Video Codec\r\nFormat profile              :   \r\nFormat settings, CABAC      : Yes\r\nFormat settings, ReFrames   : 4 frames\r\nCodec ID                    : avc1\r\nCodec ID/Info               : Advanced Video Coding\r\nDuration                    : 1 h 51 min\r\nBit rate                    : 749 kb/s\r\nWidth                       : 1 280 pixels\r\nHeight                      : 796 pixels\r\nDisplay aspect ratio        : 16:10\r\nFrame rate mode             : Variable\r\nFrame rate                  : 24.974 FPS\r\nMinimum frame rate          : 6.247 FPS\r\nMaximum frame rate          : 24.986 FPS\r\nOriginal frame rate         : 25.000 FPS\r\nColor space                 : YUV\r\nChroma subsampling          : 4:2:0\r\nBit depth                   : 8 bits\r\nScan type                   : Progressive\r\nBits/(Pixel*Frame)          : 0.029\r\nStream size                 : 599 MiB (85%)\r\nWriting library             : x264 core 146 r2538 121396c\r\n\r\nAudio\r\nFormat                      : AAC\r\nFormat/Info                 : Advanced Audio Codec\r\nFormat profile              : LC\r\nCodec ID                    : 40\r\nDuration                    : 1 h 51 min\r\nSource duration             : 1 h 51 min\r\nBit rate mode               : Variable\r\nBit rate                    : 128 kb/s\r\nChannel(s)                  : 2 channels\r\nChannel positions           : Front: L R\r\nSampling rate               : 44.1 kHz\r\nFrame rate                  : 43.066 FPS (1024 spf)\r\nCompression mode            : Lossy\r\nStream size                 : 102 MiB (14%)\r\nSource stream size          : 102 MiB (14%)\r\n\r\nRipper : Manojvb\r\n\r\nSeeding 24x7... Extreme Seeding...\r\n\r\n \nhttp://i1306.photobucket.com/albums/s570/zyx55e/oie_1117625zVIGKvnK_zpsc8b6e055.gif","torrent":{"xt":"urn:btih:bd42f03c5dede450a63a9c70b7fe4905adae3e8b","amp;dn":"Ganvesh+2016+Marathi+720p+Upscaled+DesiScr+x264+AAC+ESubs+%5BTMB%5D","amp;tr":["udp%3A%2F%2Ftracker.leechers-paradise.org%3A6969","udp%3A%2F%2Fzer0day.ch%3A1337","udp%3A%2F%2Fopen.demonii.com%3A1337","udp%3A%2F%2Ftracker.coppersurfer.tk%3A6969","udp%3A%2F%2Fexodus.desync.com%3A6969"],"infoHash":"bd42f03c5dede450a63a9c70b7fe4905adae3e8b","infoHashBuffer":{"type":"Buffer","data":[189,66,240,60,93,237,228,80,166,58,156,112,183,254,73,5,173,174,62,139]},"announce":[],"urlList":[]}}